<?xml version="1.0" encoding="UTF-8"?>
<!DOCTYPE svg PUBLIC "-//W3C//DTD SVG 1.1//EN" "http://www.w3.org/Graphics/SVG/1.1/DTD/svg11.dtd">
<svg version="1.1" xmlns="http://www.w3.org/2000/svg" xmlns:xlink="http://www.w3.org/1999/xlink" width="96" height="96" viewBox="0 0 96 96" xml:space="preserve">
    <g>
        <path fill="#67a492" d="M 0.2,0.1 L 0.2,95.9 96,95.9 96,0.1 0.2,0.1 Z M 76.2,50.1 C 74.1,55.7 70.2,60 61.4,66.4 56.2,70.3 50.4,75.8 49.6,76.9 L 49.6,76.9 C 49.4,77.3 48.9,78.2 47.8,78.2 L 47.8,78.2 C 46.7,78.2 46.2,77.3 46,77 45.8,76.6 45.4,75.9 44.4,74.9 43.3,73.6 40.5,71.1 38,69.3 30.7,63.8 29.6,62.9 26.7,60.2 20.9,54.9 18.5,49.5 18.5,42.2 18.5,38.6 18.9,37.2 19.9,35 21.7,31.2 24.3,28.5 27.6,26.9 29.9,25.7 31.2,25.1 35,25.1 38.9,25.1 39.9,25.6 42.4,26.9 44.6,28.1 46.7,30.1 48,32.2 50.7,27.8 55.6,25.1 61,25.1 67.3,25.1 72.9,28.6 75.7,34.1 77.7,37.8 77.9,45.5 76.2,50.1 Z M 76.2,50.1" />
        <path fill="#67a492" d="M 61.1,28.5 C 56.3,28.5 52.3,31 50.3,35.2 L 49.4,37.1 C 49.1,37.8 48.4,38.2 47.6,38.1 46.9,38 46.2,37.5 46.1,36.7 L 45.8,35.3 C 45.4,33.8 43.1,31 40.8,29.8 38.7,28.6 38.3,28.4 35,28.4 31.9,28.4 31.2,28.8 29.2,29.8 26.6,31.1 24.5,33.3 23.1,36.3 22.4,37.9 22.1,38.9 22.1,42 22.1,48.3 24.2,52.8 29.2,57.5 32,60.1 33,60.9 40.2,66.4 42.5,68.1 45.7,70.9 47.1,72.4 47.4,72.8 47.7,73.1 47.9,73.4 50.4,70.7 55.7,66.2 59.3,63.5 67.6,57.4 71,53.7 72.9,48.8 74.2,45.2 74.1,38.5 72.6,35.5 70.4,31.2 66,28.5 61.1,28.5 Z M 61.1,28.5" />
    </g>
</svg>
