<svg class="title" viewBox="0 0 1200 400" >
    <g class="mrloh">
        <path d="M 352.6,38 L 352.6,41.8 341.6,41.8 341.6,174.2 352.6,174.2 352.6,178 291.6,178 291.6,174.2 302.6,174.2 302.6,49.2 301.8,49.2 271.8,178 246.8,178 211.6,48.6 210.8,48.6 210.8,174.2 221.8,174.2 221.8,178 194.6,178 194.6,174.2 205.6,174.2 205.6,41.8 194.6,41.8 194.6,38 248.6,38 275.2,141 299.2,38 352.6,38 Z M 352.6,38" />
        <path d="M 407.5,120.8 L 407.5,174.4 421.7,174.4 421.7,178 359.3,178 359.3,174.4 370.3,174.4 370.3,86.4 359.3,86.4 359.3,82.8 407.5,82.8 407.5,102 C 411.1,87.8 422.3,80.8 434.3,80.8 446.1,80.8 455.5,87 455.5,102.2 455.5,113.6 449.5,121.2 438.7,121.2 425.3,121.2 418.9,112.8 423.1,98.6 L 430.3,98.6 C 434.3,90.4 430.3,88.4 426.1,88.4 416.5,88.4 407.5,102.8 407.5,120.8 Z M 407.5,120.8" />
        <path d="M 531.5,38 L 531.5,42.4 510.3,42.4 510.3,173.6 517.5,173.6 C 542.3,173.6 553.3,155.6 565.1,131.2 L 569.3,131.2 565.5,178 459.5,178 459.5,173.6 471.3,173.6 471.3,42.4 459.5,42.4 459.5,38 531.5,38 Z M 531.5,38" />
        <path d="M 630.5,80.8 C 664.1,80.8 680.1,96.6 680.1,129 680.1,161.8 664.9,180 629.3,180 595.7,180 578.7,162 578.7,130.8 578.7,98 598.3,80.8 630.5,80.8 Z M 641.7,121.6 C 641.7,100 641.1,84.4 629.9,84.4 617.7,84.4 617.1,100 617.1,122.6 L 617.1,138.2 C 617.1,161.4 617.5,176.4 629.7,176.4 641.1,176.4 641.7,164.6 641.7,138.6 L 641.7,121.6 Z M 641.7,121.6" />
        <path d="M 817.3,173.5 C 815.7,173.5 814.3,174.8 814.3,176.3 814.3,177.9 815.7,179.3 817.3,179.3 818.9,179.3 820.3,177.9 820.3,176.3 820.3,174.9 818.9,173.5 817.3,173.5 Z M 817.3,173.5" />
        <path d="M 866.9,126.8 L 865.7,126.5 C 852,122.8 839.1,119.4 839.1,106.7 839.1,94.3 850.1,86 866.3,86 878.4,86 888.8,90.6 894.8,98.6 L 897.8,95.8 C 892.7,89.5 883.2,82.4 866.3,82.4 847.5,82.4 834.8,92.2 834.8,106.8 834.8,123.3 850.6,127.4 865.9,131.4 L 866.7,131.6 C 881,135.5 895.8,139.5 895.8,154 895.8,167.7 884.1,176.9 866.8,176.9 854.5,176.9 843.5,171.9 836.6,163.1 L 833.2,166.2 C 842.2,176.2 852.3,180.5 866.9,180.5 887.1,180.5 900.1,170.1 900.1,154 900.1,135.2 883.2,130.9 866.9,126.8 Z M 866.9,126.8" />
        <path d="M 957.2,180.5 C 971.4,180.5 982.4,175.8 992.7,165.4 L 990.3,162.9 C 981.2,172.3 970.4,176.9 957.2,176.9 945.4,176.9 935.2,172.4 927.7,164 920.7,156.1 916.7,145.2 916.4,133.4 L 916.4,132.5 998.6,132.5 998.6,131.4 C 998.6,107 985.2,82.4 955.3,82.4 930.7,82.4 911.4,103.9 911.4,131.4 911.3,160.3 930.2,180.5 957.2,180.5 Z M 926.5,99.8 C 931.5,93.5 940.6,85.9 955,85.9 980.2,85.9 993.9,107.6 993.9,127.9 L 993.9,128.8 916.3,128.8 916.3,127.9 C 916.7,117.8 920.4,107.5 926.5,99.8 Z M 926.5,99.8" />
        <path d="M 728.4,28 L 728.4,101.2 C 731.8,91.2 738.4,80.8 758.2,80.8 776.8,80.8 789.2,90 789.2,114.2 L 789.2,174.4 800.4,174.4 800.4,178 743.8,178 743.8,174.4 752,174.4 752,109.4 C 752,92.4 749.6,90.4 744.6,90.4 736.2,90.4 728.4,103 728.4,119.2 L 728.4,174.4 737,174.4 737,178 680.2,178 680.2,174.4 691.2,174.4 691.2,31.6 680.2,31.6 680.2,28 728.4,28 Z M 728.4,28" />
    </g>
    <g class="thoughts">
        <path d="M 56.9,320.9 L 56.9,279.7 42,279.7 42,265.9 87.8,265.9 87.8,279.7 72.9,279.7 72.9,320.9 56.9,320.9 Z M 56.9,320.9" />
        <path d="M 131.7,320.9 L 131.7,299.7 109,299.7 109,320.9 93,320.9 93,265.9 109,265.9 109,285.9 131.7,285.9 131.7,265.9 147.6,265.9 147.6,320.9 131.7,320.9 Z M 131.7,320.9" />
        <path d="M 154.5,293.4 C 154.5,276.7 167,264.7 184.6,264.7 202.2,264.7 214.7,276.7 214.7,293.4 214.7,310.1 202.2,322.1 184.6,322.1 167,322.1 154.5,310.1 154.5,293.4 Z M 198.5,293.4 C 198.5,285.1 193.1,278.7 184.6,278.7 176.1,278.7 170.6,285.1 170.6,293.4 170.6,301.7 176.1,308.1 184.6,308.1 193.1,308.1 198.5,301.7 198.5,293.4 Z M 198.5,293.4" />
        <path d="M 221.1,298.8 L 221.1,265.9 237.2,265.9 237.2,297.3 C 237.2,303.6 241.2,308.1 248.4,308.1 255.5,308.1 259.5,303.6 259.5,297.3 L 259.5,265.9 275.6,265.9 275.6,298.7 C 275.6,312.4 266.9,322.1 248.4,322.1 229.9,322.1 221.1,312.4 221.1,298.8 Z M 221.1,298.8" />
        <path d="M 281.8,293.4 C 281.8,275.8 295.2,264.7 312.4,264.7 323.7,264.7 331.8,270.9 335.7,277.3 L 322.7,284.6 C 320.7,281.3 317.1,278.8 312.4,278.8 303.8,278.8 298,285 298,293.4 298,301.7 303.8,308.2 312.4,308.2 316.4,308.2 319.4,306.7 321.2,305.2 L 321.2,301.3 310.1,301.3 310.1,288.8 337.1,288.8 337.1,311.2 C 330.9,317.8 322.5,322.1 312.4,322.1 295.2,322.1 281.8,310.8 281.8,293.4 Z M 281.8,293.4" />
        <path d="M 384.2,320.9 L 384.2,299.7 361.5,299.7 361.5,320.9 345.5,320.9 345.5,265.9 361.5,265.9 361.5,285.9 384.2,285.9 384.2,265.9 400.1,265.9 400.1,320.9 384.2,320.9 Z M 384.2,320.9" />
        <path d="M 420.3,320.9 L 420.3,279.7 405.4,279.7 405.4,265.9 451.2,265.9 451.2,279.7 436.3,279.7 436.3,320.9 420.3,320.9 Z M 420.3,320.9" />
        <path d="M 453.3,314 L 460.3,302.2 C 464.2,305.9 471.5,309.1 478.7,309.1 484,309.1 486.7,307.3 486.7,304.7 486.7,302.1 482.6,301.3 477.5,300.3 468.3,298.6 455.2,296.2 455.2,282.5 455.2,273.2 463.9,264.7 478.3,264.7 488,264.7 495.9,267.6 501.8,272.6 L 494.5,283.5 C 490.3,279.9 483.3,277.7 478.2,277.7 473.7,277.7 471.4,279.5 471.4,281.7 471.4,284.1 475.3,284.9 480.3,285.8 489.6,287.5 502.8,290 502.8,303.7 502.8,315.1 493.8,322.1 478.1,322.1 467.2,322.1 458.4,318.5 453.3,314 Z M 453.3,314" />
    </g>
    <g class="amp">
        <path d="M 653.2,312.3 C 651.5,339.5 637.1,365.2 592.9,365.2 560.6,365.2 541.6,353.6 541.6,332.1 541.6,311.4 563.2,300.1 590.4,297.9 L 590.4,297.2 C 569.5,296.5 554.9,288.2 554.9,273.7 554.9,252.6 576.5,242.4 606.2,242.4 622.9,242.4 641,247.2 641,265.3 641,278.9 632.2,283.5 624.5,283.5 609.9,283.5 609.7,269 613.6,262.9 L 622.6,262.9 C 628.4,251.3 622.6,245.7 613.1,245.7 602.9,245.7 591.7,253 591.7,275.3 591.7,282.1 592.9,291.8 596.3,296.2 600.2,294.3 604.6,293 607.5,293 610.2,293 613.8,294 613.8,298.1 613.8,302.5 610.2,303.7 606.7,303.7 602.3,303.7 598.2,301 595.3,299.1 587.1,306.1 581.4,313.9 581.4,331.4 581.4,344.8 587.5,357.9 607.6,357.9 632.4,357.9 647.9,336 648.7,312.9 L 625.4,315.8 C 620.5,316.5 620,318.2 618.9,323.4 L 616.4,323.2 C 617.1,300.1 622.4,290.4 632.9,288.4 639.4,287.4 666.2,284.2 673.4,282.6 676.5,281.9 678,280.6 678.7,275 L 681.4,275.2 C 682.2,292.4 678.3,307.8 666.4,309.9 L 653.2,312.3 Z M 653.2,312.3" />
    </g>
    <g class="code">
        <path d="M 734.5,296.7 C 735.7,297.4 736.8,298.2 737.8,299.2 738.8,300.1 739.6,301.2 740.4,302.4 741.1,303.6 741.7,304.9 742.1,306.3 742.5,307.7 742.7,309.3 742.7,311.1 L 742.7,321.4 C 742.7,324.8 743.4,327.3 744.7,328.8 746,330.3 748.1,331.1 750.7,331.1 751.3,331.1 751.8,331.2 752.2,331.3 752.6,331.4 752.9,331.7 753.2,332.1 753.5,332.5 753.6,333 753.8,333.7 753.9,334.4 754,335.3 754,336.4 754,337.5 753.9,338.4 753.8,339.1 753.7,339.8 753.5,340.3 753.2,340.7 752.9,341.1 752.6,341.4 752.2,341.5 751.8,341.6 751.3,341.7 750.7,341.7 743.9,341.7 738.7,340.1 735.1,336.9 731.6,333.7 729.8,328.7 729.8,322.1 L 729.8,311.7 C 729.8,308.6 729.1,306.2 727.6,304.6 726.2,303 723.8,302.2 720.5,302.2 719.9,302.2 719.4,302.1 719,302 718.6,301.9 718.3,301.6 718,301.2 717.7,300.8 717.6,300.3 717.4,299.6 717.3,298.9 717.2,298 717.2,296.9 717.2,295.8 717.3,294.9 717.4,294.2 717.5,293.5 717.7,293 718,292.6 718.3,292.2 718.6,292 719,291.8 719.4,291.7 719.9,291.6 720.5,291.6 723.8,291.6 726.1,290.8 727.6,289.2 729,287.6 729.8,285.2 729.8,282.1 L 729.8,273.9 C 729.8,267.3 731.6,262.4 735.1,259.1 738.6,255.9 743.8,254.2 750.7,254.2 751.3,254.2 751.8,254.3 752.2,254.4 752.6,254.5 752.9,254.8 753.2,255.2 753.5,255.6 753.6,256.1 753.8,256.8 753.9,257.5 754,258.4 754,259.5 754,260.6 753.9,261.5 753.8,262.2 753.7,262.9 753.5,263.4 753.2,263.8 752.9,264.2 752.6,264.4 752.2,264.6 751.8,264.7 751.3,264.8 750.7,264.8 748,264.8 746,265.6 744.7,267.1 743.3,268.6 742.7,271.1 742.7,274.5 L 742.7,282.5 C 742.7,284.2 742.5,285.8 742.1,287.3 741.7,288.7 741.2,290 740.4,291.2 739.7,292.4 738.8,293.4 737.8,294.3 736.8,295.2 735.7,296 734.5,296.7 Z M 734.5,296.7" />
        <path d="M 814.6,306.1 C 815.6,305.5 816.6,305.5 817.6,305.9 818.6,306.4 819.5,307.6 820.4,309.6 821.3,311.6 821.5,313.2 821.2,314.3 820.9,315.4 820.2,316.3 819.1,316.9 816,318.6 812.7,320 809.3,321 805.9,322 802.2,322.5 798.6,322.5 794.6,322.5 791.1,321.9 787.9,320.7 784.7,319.5 782,317.8 779.7,315.5 777.4,313.3 775.7,310.7 774.5,307.6 773.3,304.6 772.7,301.2 772.7,297.7 772.7,294 773.3,290.7 774.6,287.7 775.8,284.7 777.6,282 779.8,279.9 782,277.7 784.6,276 787.6,274.8 790.6,273.6 793.8,273 797.2,273 800,273 802.3,273.5 804.2,274.5 806.1,275.5 807.7,277 808.9,279 L 808.9,276.2 C 808.9,275 809.4,274.2 810.4,273.7 811.4,273.2 813,273 815.2,273 816.3,273 817.2,273.1 817.9,273.2 818.6,273.3 819.2,273.5 819.6,273.8 820,274.1 820.3,274.4 820.5,274.8 820.7,275.2 820.8,275.7 820.8,276.3 L 820.8,292.8 C 820.8,294 820.3,294.8 819.3,295.3 818.3,295.8 816.5,296 814.1,296 812.9,296 811.9,295.9 811.1,295.8 810.3,295.7 809.7,295.5 809.3,295.2 808.8,294.9 808.5,294.6 808.4,294.2 808.2,293.8 808.1,293.3 808.1,292.7 808.1,291.6 807.9,290.6 807.5,289.7 807.1,288.7 806.6,287.9 805.8,287.1 805,286.3 804.1,285.8 802.9,285.3 801.8,284.9 800.4,284.6 798.9,284.6 797.1,284.6 795.4,284.9 793.9,285.5 792.4,286.1 791.1,287 790,288.2 788.9,289.4 788.1,290.8 787.5,292.4 786.9,294 786.6,295.8 786.6,297.8 786.6,299.8 786.9,301.6 787.5,303.2 788.1,304.8 788.9,306.2 790,307.4 791.1,308.6 792.3,309.5 793.9,310.1 795.4,310.7 797.1,311 798.9,311 801.6,311 804.4,310.6 807.1,309.7 809.5,308.8 812.1,307.6 814.6,306.1 Z M 814.6,306.1" />
        <path d="M 852.8,322.6 C 848.8,322.6 845.3,322 842.1,320.8 838.9,319.6 836.2,317.9 833.9,315.6 831.6,313.4 829.9,310.8 828.7,307.7 827.5,304.7 826.9,301.3 826.9,297.8 826.9,294.3 827.5,290.9 828.7,287.9 829.9,284.9 831.7,282.3 833.9,280.1 836.2,277.9 838.9,276.2 842.1,274.9 845.3,273.7 848.9,273 852.8,273 856.8,273 860.3,273.6 863.5,274.9 866.7,276.1 869.4,277.9 871.7,280.1 874,282.3 875.7,284.9 876.9,287.9 878.1,290.9 878.7,294.2 878.7,297.8 878.7,301.4 878.1,304.7 876.9,307.7 875.7,310.7 873.9,313.4 871.7,315.6 869.4,317.8 866.7,319.5 863.5,320.8 860.3,322 856.7,322.6 852.8,322.6 Z M 852.8,284.6 C 851,284.6 849.3,284.9 847.8,285.5 846.3,286.1 845,287 843.9,288.2 842.8,289.4 842,290.8 841.4,292.4 840.8,294 840.5,295.8 840.5,297.8 840.5,299.8 840.8,301.6 841.4,303.2 842,304.8 842.8,306.2 843.9,307.4 845,308.6 846.2,309.5 847.8,310.1 849.3,310.7 851,311 852.8,311 854.6,311 856.3,310.7 857.8,310.1 859.3,309.5 860.6,308.6 861.7,307.4 862.8,306.2 863.6,304.9 864.2,303.2 864.8,301.6 865.1,299.8 865.1,297.8 865.1,295.8 864.8,294 864.2,292.4 863.6,290.8 862.8,289.4 861.7,288.2 860.6,287 859.3,286.1 857.8,285.5 856.3,284.9 854.6,284.6 852.8,284.6 Z M 852.8,284.6" />
        <path d="M 936.8,310.9 C 937.4,310.9 937.9,311 938.3,311.1 938.7,311.2 939,311.5 939.3,311.9 939.6,312.3 939.7,312.8 939.9,313.5 940,314.2 940.1,315.1 940.1,316.2 940.1,317.3 940,318.2 939.9,318.9 939.8,319.6 939.6,320.1 939.3,320.5 939,320.9 938.7,321.2 938.3,321.3 937.9,321.4 937.4,321.5 936.8,321.5 L 924.8,321.5 C 923.6,321.5 922.8,321.3 922.3,320.8 921.8,320.3 921.6,319.5 921.6,318.3 L 921.6,314.8 C 919.8,317.3 917.6,319.3 915,320.6 912.4,322 909.4,322.7 906.1,322.7 902.7,322.7 899.7,322.1 896.9,320.9 894.2,319.7 891.9,318 889.9,315.9 888,313.8 886.5,311.2 885.5,308.3 884.5,305.4 884,302.2 884,298.7 884,295.2 884.5,292.1 885.5,289.1 886.5,286.2 888,283.6 889.9,281.5 891.8,279.4 894.2,277.7 896.9,276.5 899.6,275.3 902.7,274.7 906.1,274.7 908.8,274.7 911.3,275.2 913.6,276.2 915.9,277.2 917.9,278.7 919.6,280.6 L 919.6,264.9 909.5,264.9 C 908.9,264.9 908.4,264.8 908,264.7 907.6,264.6 907.3,264.3 907,263.9 906.7,263.5 906.6,263 906.4,262.3 906.3,261.6 906.2,260.7 906.2,259.6 906.2,258.5 906.3,257.6 906.4,256.9 906.5,256.2 906.7,255.7 907,255.3 907.3,254.9 907.6,254.6 908,254.5 908.4,254.4 908.9,254.3 909.5,254.3 L 929.2,254.3 C 930.4,254.3 931.2,254.5 931.7,255 932.2,255.5 932.4,256.3 932.4,257.5 L 932.4,311 936.8,311 936.8,310.9 Z M 919.9,298.5 C 919.9,296.4 919.6,294.6 919,293 918.4,291.4 917.5,290.2 916.4,289.1 915.3,288.1 914.1,287.3 912.7,286.8 911.3,286.3 909.8,286 908.2,286 905.1,286 902.5,287.1 900.6,289.2 898.7,291.3 897.8,294.4 897.8,298.4 897.8,302.4 898.7,305.5 900.6,307.6 902.5,309.7 905,310.8 908.2,310.8 909.8,310.8 911.3,310.5 912.7,310 914.1,309.5 915.4,308.7 916.4,307.7 917.5,306.7 918.3,305.4 919,303.8 919.6,302.4 919.9,300.6 919.9,298.5 Z M 919.9,298.5" />
        <path d="M 985.5,308.1 C 986.6,307.8 987.5,307.9 988.2,308.4 988.9,309 989.6,310.3 990.1,312.4 990.4,313.5 990.5,314.4 990.6,315.1 990.7,315.8 990.6,316.5 990.4,316.9 990.2,317.4 989.9,317.8 989.6,318.1 989.2,318.4 988.7,318.7 988.1,318.9 984.7,320 981.1,320.9 977.3,321.6 973.5,322.2 969.8,322.6 966.1,322.6 962.3,322.6 958.9,322 955.9,320.8 952.9,319.6 950.4,317.9 948.4,315.6 946.4,313.4 944.8,310.8 943.8,307.7 942.7,304.7 942.2,301.3 942.2,297.8 942.2,294.3 942.8,290.9 943.9,287.9 945.1,284.9 946.7,282.3 948.9,280.1 951.1,277.9 953.8,276.2 956.9,274.9 960,273.7 963.6,273 967.6,273 971.6,273 975.1,273.7 978.2,275 981.2,276.3 983.8,278.1 985.8,280.5 987.8,282.8 989.4,285.6 990.4,288.9 991.4,292.1 992,295.6 992,299.4 992,300.6 991.8,301.4 991.3,301.9 990.8,302.4 990,302.6 988.8,302.6 L 956,302.6 C 956.7,305.4 958,307.5 959.9,308.9 961.8,310.3 964.3,311.1 967.3,311.1 970.1,311.1 972.9,310.9 975.9,310.5 978.9,309.9 982.1,309.1 985.5,308.1 Z M 978.7,292.5 C 978.1,290 976.9,288.1 975,286.7 973.1,285.3 970.7,284.6 967.7,284.6 964.6,284.6 962.1,285.2 960.1,286.5 958.2,287.8 956.8,289.8 956.1,292.4 L 978.7,292.4 978.7,292.5 Z M 978.7,292.5" />
        <path d="M 1029.2,321 C 1026.6,319.4 1024.2,317.6 1022.2,315.7 1020.2,313.8 1018.5,311.8 1017.1,309.6 1015.7,307.4 1014.7,305.1 1014,302.6 1013.3,300.1 1012.9,297.3 1012.9,294.4 1012.9,291.5 1013.3,288.7 1014,286.2 1014.7,283.7 1015.8,281.3 1017.1,279.2 1018.5,277 1020.2,275 1022.2,273.1 1024.2,271.2 1026.6,269.4 1029.2,267.8 1029.8,267.5 1030.2,266.9 1030.3,266.3 1030.4,265.8 1030.4,265.2 1030.3,264.6 1030.2,264 1030,263.4 1029.7,262.8 1029.4,262.2 1029.1,261.6 1028.7,260.9 1027.9,259.7 1027,258.8 1026,258.2 1024.8,257.5 1023.6,257.4 1022.4,258.1 1019.7,259.6 1017.1,261.5 1014.5,263.8 1011.9,266 1009.5,268.7 1007.5,271.7 1005.5,274.7 1003.8,278.2 1002.5,281.9 1001.2,285.7 1000.6,289.9 1000.6,294.5 1000.6,299.1 1001.2,303.3 1002.5,307.1 1003.8,310.9 1005.4,314.3 1007.5,317.3 1009.5,320.3 1011.9,323 1014.5,325.2 1017.1,327.4 1019.8,329.3 1022.4,330.9 1022.9,331.2 1023.5,331.4 1024.1,331.4 1024.7,331.4 1025.4,331.2 1026,330.8 1027,330.2 1027.9,329.3 1028.7,328.1 1029.1,327.5 1029.4,326.9 1029.7,326.2 1030,325.5 1030.2,324.9 1030.3,324.4 1030.4,323.8 1030.4,323.2 1030.3,322.7 1030.2,321.9 1029.8,321.4 1029.2,321 Z M 1029.2,321" />
        <path d="M 1061.2,271.6 C 1059.2,268.6 1056.8,265.9 1054.2,263.7 1051.6,261.5 1048.9,259.6 1046.3,258 1045.2,257.4 1043.9,257.4 1042.7,258.1 1041.7,258.7 1040.8,259.6 1040,260.8 1039.6,261.4 1039.2,262 1038.9,262.7 1038.6,263.4 1038.4,264 1038.3,264.5 1038.2,265.1 1038.2,265.7 1038.4,266.3 1038.6,267 1039,267.5 1039.5,267.8 1042.1,269.4 1044.5,271.2 1046.5,273.1 1048.5,275 1050.2,277 1051.6,279.2 1053,281.4 1054,283.7 1054.7,286.2 1055.4,288.7 1055.8,291.5 1055.8,294.4 1055.8,297.3 1055.4,300.1 1054.7,302.6 1054,305.1 1052.9,307.5 1051.6,309.6 1050.2,311.8 1048.5,313.8 1046.5,315.7 1044.5,317.6 1042.1,319.4 1039.5,321 1039,321.4 1038.6,321.9 1038.4,322.5 1038.2,323 1038.2,323.6 1038.3,324.3 1038.4,324.9 1038.6,325.5 1038.9,326.1 1039.2,326.7 1039.5,327.4 1039.9,328 1040.7,329.2 1041.6,330.1 1042.6,330.7 1043.2,331.1 1043.9,331.3 1044.5,331.3 1045.1,331.3 1045.6,331.1 1046.2,330.8 1048.9,329.3 1051.5,327.4 1054.1,325.1 1056.7,322.9 1059.1,320.2 1061.1,317.2 1063.1,314.2 1064.8,310.7 1066.1,307 1067.4,303.2 1068,299 1068,294.4 1068,289.8 1067.4,285.6 1066.1,281.8 1064.9,278 1063.2,274.6 1061.2,271.6 Z M 1061.2,271.6" />
        <path d="M 1095.9,306.4 L 1084.5,306.4 C 1083,306.4 1082,307.1 1081.7,308.6 L 1077.6,332.4 C 1077.4,333.8 1078,334.6 1078.5,335 1079.2,335.6 1080.3,335.9 1081.6,335.9 1082.7,335.9 1083.6,335.7 1084.2,335.4 1084.9,335.1 1085.4,334.5 1085.8,333.8 L 1097.5,309.9 C 1097.9,309 1098,308.2 1097.7,307.5 1097.5,307 1097,306.4 1095.9,306.4 Z M 1095.9,306.4" />
        <path d="M 1084.1,298.9 C 1084.9,299.7 1085.9,300.4 1087,300.8 1088.1,301.3 1089.3,301.5 1090.6,301.5 1091.8,301.5 1093,301.3 1094.1,300.8 1095.2,300.3 1096.2,299.7 1097,298.9 1097.8,298.1 1098.5,297.1 1098.9,296 1099.4,294.9 1099.6,293.7 1099.6,292.4 1099.6,291.2 1099.4,290 1098.9,288.9 1098.4,287.8 1097.8,286.8 1097,286 1096.2,285.2 1095.2,284.5 1094.1,284.1 1091.8,283.1 1089.2,283.2 1087,284.1 1085.9,284.6 1084.9,285.2 1084.1,286 1083.3,286.8 1082.6,287.8 1082.2,288.9 1081.7,290 1081.5,291.2 1081.5,292.4 1081.5,293.7 1081.7,294.9 1082.2,296 1082.6,297.1 1083.3,298.1 1084.1,298.9 Z M 1084.1,298.9" />
        <path d="M 1141.2,295.7 C 1140,295 1138.9,294.2 1137.9,293.2 1136.9,292.3 1136.1,291.2 1135.3,290.1 1134.6,288.9 1134,287.6 1133.6,286.2 1133.2,284.8 1133,283.2 1133,281.4 L 1133,273.4 C 1133,270 1132.3,267.5 1131,266 1129.6,264.5 1127.6,263.7 1125,263.7 1124.4,263.7 1123.9,263.6 1123.5,263.5 1123.1,263.4 1122.8,263.1 1122.5,262.7 1122.2,262.3 1122.1,261.8 1121.9,261.1 1121.8,260.4 1121.7,259.5 1121.7,258.4 1121.7,257.3 1121.8,256.4 1121.9,255.7 1122,255 1122.2,254.5 1122.5,254.1 1122.8,253.7 1123.1,253.4 1123.5,253.3 1123.9,253.2 1124.4,253.1 1125,253.1 1131.8,253.1 1137,254.7 1140.6,258 1144.1,261.2 1145.9,266.2 1145.9,272.8 L 1145.9,281 C 1145.9,284.1 1146.6,286.5 1148.1,288.1 1149.5,289.7 1151.9,290.5 1155.2,290.5 1155.8,290.5 1156.3,290.6 1156.7,290.7 1157.1,290.8 1157.4,291.1 1157.7,291.5 1158,291.9 1158.1,292.4 1158.3,293.1 1158.4,293.8 1158.5,294.7 1158.5,295.8 1158.5,296.9 1158.4,297.8 1158.3,298.5 1158.2,299.2 1158,299.7 1157.7,300.1 1157.4,300.5 1157.1,300.8 1156.7,300.9 1156.3,301 1155.8,301.1 1155.2,301.1 1151.9,301.1 1149.6,301.9 1148.1,303.5 1146.7,305.1 1145.9,307.5 1145.9,310.6 L 1145.9,321 C 1145.9,327.6 1144.1,332.6 1140.6,335.8 1137.1,339 1131.9,340.6 1125,340.6 1124.4,340.6 1123.9,340.5 1123.5,340.4 1123.1,340.3 1122.8,340 1122.5,339.6 1122.2,339.2 1122.1,338.7 1121.9,338 1121.8,337.3 1121.7,336.4 1121.7,335.3 1121.7,334.2 1121.8,333.3 1121.9,332.6 1122,331.9 1122.2,331.4 1122.5,331 1122.8,330.6 1123.1,330.4 1123.5,330.2 1123.9,330.1 1124.4,330 1125,330 1127.7,330 1129.7,329.2 1131,327.7 1132.3,326.2 1133,323.7 1133,320.3 L 1133,310 C 1133,308.3 1133.2,306.7 1133.6,305.2 1134,303.8 1134.5,302.5 1135.3,301.3 1136,300.1 1136.9,299.1 1137.9,298.1 1138.9,297.3 1140,296.4 1141.2,295.7 Z M 1141.2,295.7" />
    </g>
</svg>
