<svg class="title" viewBox="0 0 200 200" >
    <path d="M 176.72,128.26 C 171.2,140.58 165.71,143.6 156.34,143.6 143.14,143.6 137.91,135.13 137.91,121.17 137.91,108.3 159.2,51.53 159.2,51.53 162.53,43.83 165.86,33.87 169.84,21.29 L 165.71,20.2 C 160.48,29.5 156.34,31.98 149.47,31.98 135.97,31.98 76.48,27.32 63.24,27.32 45.35,27.32 35.43,38.81 20.8,79.34 L 24.93,80.72 C 30.46,70.32 36.24,68.69 43.96,68.69 45.97,68.69 46.41,68.72 77.58,70.72 70.34,100.71 56.32,117.9 42.17,134.4 35.84,142.07 26.47,149.45 26.47,160.93 26.47,167.22 30.06,173.8 40.52,173.8 47.69,173.8 58.7,168.86 65.32,149.99 70.52,135.09 77.18,104.45 83.72,71.12 95.54,71.88 111.05,72.87 131.58,74.17 137.76,74.17 142.59,72.83 146.72,69.81 135.71,98.64 120.82,132.4 120.82,148.87 120.82,163.11 126.6,173.76 142.3,173.76 165.16,173.76 173.69,150.5 180.6,129.17 L 176.72,128.26 Z M 176.72,128.26" />
</svg>
