<svg class="icon rss" viewBox="0 0 100 100" >
    <g stroke="#000" stroke-width="5" fill="none">
        <path d="M 45,31.1 L 55.6,31.1" />
        <path d="M 48.1,48 C 49.1,47.6 50.1,46.9 50.9,46.1 52.6,44.4 53.5,42.3 53.5,39.9 53.5,37.4 52.6,35.4 50.9,33.7 49.2,32 47.2,31.2 44.9,31.1" />
        <path d="M 45,31.1 L 44.5,31.1 C 42.2,31.1 40.2,32 38.5,33.7 36.8,35.4 35.9,37.5 35.9,39.9 35.9,42.3 36.8,44.4 38.5,46.1 40.2,47.8 42.3,48.7 44.7,48.7 45.9,48.7 47,48.5 48.1,48.1" />
        <path d="M 51.4,56.5 C 49.5,55.7 47.3,55.3 45,55.3 41.6,55.3 38.7,56.1 36.3,57.8 33.9,59.5 32.7,61.5 32.7,63.9 32.7,66.3 33.9,68.3 36.3,70 38.7,71.7 41.6,72.5 45,72.5 48.4,72.5 51.3,71.7 53.7,70 56.1,68.3 57.3,66.3 57.3,63.9 57.3,61.5 56.1,59.5 53.7,57.8 53.4,57.6 53.1,57.4 52.8,57.2 52.3,56.9 51.9,56.7 51.4,56.5 L 51.4,56.5 Z M 51.4,56.5" />
        <path d="M 51.4,56.5 C 47.3,54.2 46.2,51.4 48.1,48" />
        <path d="M 58.5,38.5 L 77.9,38.5" />
        <path d="M 67.6,47.9 L 67.5,28.5" />
    </g>
</svg>
