<svg class="icon rss" viewBox="0 0 100 100" >
    <g stroke="#000" stroke-width="5" fill="none">
        <path d="M 44.62,45.82 L 26.29,45.82 C 25.81,45.82 25.41,45.44 25.41,44.97 L 25.41,28.86 C 25.41,28.39 25.81,28.01 26.29,28.01 L 44.62,28.01 C 45.1,28.01 45.5,28.39 45.5,28.86 L 45.5,44.97 C 45.5,45.44 45.1,45.82 44.62,45.82 Z M 44.62,45.82" />
        <path d="M 73.74,45.82 L 55.4,45.82 C 54.92,45.82 54.53,45.44 54.53,44.97 L 54.53,28.86 C 54.53,28.39 54.92,28.01 55.4,28.01 L 73.74,28.01 C 74.22,28.01 74.61,28.39 74.61,28.86 L 74.61,44.97 C 74.61,45.44 74.22,45.82 73.74,45.82 Z M 73.74,45.82" />
        <path d="M 44.62,71.99 L 26.29,71.99 C 25.81,71.99 25.41,71.6 25.41,71.13 L 25.41,55.03 C 25.41,54.56 25.81,54.17 26.29,54.17 L 44.62,54.17 C 45.1,54.17 45.5,54.56 45.5,55.03 L 45.5,71.13 C 45.5,71.6 45.1,71.99 44.62,71.99 Z M 44.62,71.99" />
        <path d="M 73.74,71.99 L 55.4,71.99 C 54.92,71.99 54.53,71.6 54.53,71.13 L 54.53,55.03 C 54.53,54.56 54.92,54.17 55.4,54.17 L 73.74,54.17 C 74.22,54.17 74.61,54.56 74.61,55.03 L 74.61,71.13 C 74.61,71.6 74.22,71.99 73.74,71.99 Z M 73.74,71.99" />
    </g>
</svg>
