<svg class="icon rss" viewBox="0 0 100 100" >
    <g stroke="#000" stroke-width="5" fill="none">
        <path d="M 74.17,68.81 C 74.17,68.1 74.17,67.38 74.17,66.55 74.17,55.95 70.36,46.79 62.86,39.29 55.36,31.79 46.31,27.98 35.6,27.98 34.76,27.98 33.93,27.98 33.1,28.1" />
        <path d="M 58.57,67.98 C 58.57,67.5 58.57,67.02 58.57,66.55 58.57,60 56.19,54.52 51.67,49.88 47.02,45.24 41.55,42.98 35,42.98 34.4,42.98 33.93,42.98 33.45,42.98" />
        <path d="M 37.62,57.98 C 35.95,57.98 34.64,58.57 33.45,59.64 32.26,60.83 31.79,62.14 31.79,63.81 31.79,65.48 32.38,66.79 33.45,67.98 34.64,69.17 35.95,69.76 37.62,69.76 39.29,69.76 40.6,69.17 41.79,67.98 42.98,66.79 43.57,65.48 43.57,63.81 43.57,62.14 42.98,60.83 41.79,59.64 40.6,58.57 39.29,57.98 37.62,57.98 L 37.62,57.98 Z M 37.62,57.98" />
    </g>
</svg>
