<svg class="icon rss" viewBox="0 0 100 100" >
    <g stroke="#000" stroke-width="5" fill="none">
        <path d="M 74.29,35.6 C 76.19,33.69 77.62,31.9 78.69,30.36 76.9,30.95 75.12,31.43 73.33,32.02 72.74,32.14 72.02,32.26 71.43,32.38 71.31,32.26 71.07,32.02 70.95,31.9 68.57,29.52 65.83,28.33 62.38,28.33 59.05,28.33 56.19,29.52 53.81,31.9 51.43,34.29 50.24,37.02 50.24,40.48 50.24,41.31 50.36,42.26 50.48,43.1 40.6,43.21 32.38,39.17 25.6,31.07 22.98,36.79 24.17,42.14 28.81,47.14 27.02,47.14 25.48,46.79 23.93,45.83 23.93,45.83 23.81,45.83 23.81,45.71 23.81,46.43 23.93,47.14 24.05,47.74 24.88,52.26 27.98,55.6 33.33,57.62 30.83,58.69 28.45,58.69 26.31,57.5 28.69,62.26 32.86,65.12 38.93,66.19 34.64,69.64 29.76,71.31 24.29,71.19 29.29,74.29 35,75.83 41.31,75.83 L 42.98,75.83 C 51.55,75.36 58.81,72.14 64.88,66.07 71.43,59.64 74.64,51.67 74.64,42.5 74.64,41.55 74.64,40.6 74.52,39.64 76.55,38.45 78.45,36.67 80,34.4 78.45,35 76.43,35.48 74.29,35.6 L 74.29,35.6 Z M 74.29,35.6" />
    </g>
</svg>
