<?xml version="1.0" encoding="UTF-8"?>
<!DOCTYPE svg PUBLIC "-//W3C//DTD SVG 1.1//EN" "http://www.w3.org/Graphics/SVG/1.1/DTD/svg11.dtd">
<svg version="1.1" xmlns="http://www.w3.org/2000/svg" xmlns:xlink="http://www.w3.org/1999/xlink" width="100" height="100"  xml:space="preserve">
    <g stroke="#000" stroke-width="1.5" fill="none">
        <path d="M 8.5,50 C 8.5,61.5 12.6,71.3 20.7,79.4 28.8,87.5 38.6,91.6 50.1,91.6 56.4,91.6 62.2,90.4 67.5,87.9 68.9,87.2 70.3,86.5 71.7,85.6 73,84.8 74.2,84 75.4,83 76.2,82.4 76.9,81.8 77.7,81.1 78.3,80.6 78.9,80 79.5,79.4 87.6,71.3 91.7,61.5 91.7,50 91.7,38.5 87.6,28.7 79.5,20.6 71.3,12.5 61.5,8.5 50,8.5 38.5,8.5 28.7,12.6 20.6,20.7 12.5,28.7 8.5,38.5 8.5,50 L 8.5,50 Z M 8.5,50" />
        <path d="M 70.3,65.8 C 70.3,65.2 70.3,64.6 70.3,63.9 70.3,55 67.1,47.3 60.8,41 54.5,34.7 46.9,31.5 37.9,31.5 37.2,31.5 36.5,31.5 35.8,31.6" />
        <path d="M 57.2,65.1 C 57.2,64.7 57.2,64.3 57.2,63.9 57.2,58.4 55.2,53.8 51.4,49.9 47.5,46 42.9,44.1 37.4,44.1 36.9,44.1 36.5,44.1 36.1,44.1" />
        <path d="M 39.6,56.7 C 38.2,56.7 37.1,57.2 36.1,58.1 35.1,59.1 34.7,60.2 34.7,61.6 34.7,63 35.2,64.1 36.1,65.1 37.1,66.1 38.2,66.6 39.6,66.6 41,66.6 42.1,66.1 43.1,65.1 44.1,64.1 44.6,63 44.6,61.6 44.6,60.2 44.1,59.1 43.1,58.1 42.1,57.2 41,56.7 39.6,56.7 L 39.6,56.7 Z M 39.6,56.7" />
    </g>
</svg>
